<svg xmlns="http://www.w3.org/2000/svg">
    <symbol id="down-arrow" viewBox="684 47 10 7">
        <path d="M693.841028,48.2101064 L689.565343,53.7207447 C689.425379,53.9022606 689.22672,54 689.000971,54 C688.775222,54 688.576563,53.9022606 688.436598,53.7207447 L684.160914,48.2101064 C683.98483,47.9820479 683.94871,47.6888298 684.075129,47.4235372 C684.197034,47.1582447 684.440842,47 684.725286,47 L693.276655,47 C693.561099,47 693.804908,47.1582447 693.926812,47.4235372 C694.048717,47.6888298 694.017112,47.9820479 693.841028,48.2101064" id="Page-1" stroke="none" fill-rule="evenodd"></path>
    </symbol>
    <symbol id="bell" stroke="none" stroke-width="1"  viewBox="0 0 16 21">
        <path d="M5.08928571,17.8571429 C5.40625,19.0892857 6.52678571,20 7.85714286,20 C9.18973214,20 10.3080357,19.0892857 10.625,17.8571429 L10.6227679,17.8571429 L5.08928571,17.8571429 Z" id="bell-transparency"></path>
        <path d="M8.70759152,5.17410714 L8.70535938,5.17633929 C8.62277009,5.50892857 8.32366295,5.73214286 7.98214509,5.71651786 C7.93973438,5.71428571 7.8995558,5.71428571 7.85714509,5.71428571 C6.27902009,5.71428571 5.00000223,6.99330357 5.00000223,8.57142857 C5.00000223,10.8348214 4.97991295,13.2522321 3.99107366,15.3102679 C3.8683058,15.5625 3.62946652,15.7142857 3.34821652,15.7142857 L3.34598438,15.7142857 C3.09375223,15.7142857 2.87500223,15.59375 2.74107366,15.3794643 C2.60714509,15.1651786 2.59152009,14.9174107 2.70089509,14.6897321 C3.57589509,12.8660714 3.5714308,10.6049107 3.5714308,8.56919643 C3.5714308,6.203125 5.49107366,4.28348214 7.85714509,4.28348214 C7.91964509,4.28348214 7.98214509,4.28571429 8.04464509,4.28794643 C8.26562723,4.296875 8.45312723,4.39732143 8.5870558,4.57366071 C8.72098438,4.75223214 8.76116295,4.95982143 8.70759152,5.17410714 M7.85714509,1.42857143 C8.25223437,1.42857143 8.5714308,1.74776786 8.5714308,2.14285714 C8.5714308,2.53794643 8.25223437,2.85714286 7.85714509,2.85714286 C7.4620558,2.85714286 7.14285937,2.53794643 7.14285937,2.14285714 C7.14285937,1.74776786 7.4620558,1.42857143 7.85714509,1.42857143 M15.4441987,15.5178571 C13.5714308,14.0334821 13.5714308,11.3035714 13.5714308,8.57142857 C13.5714308,6.30133929 12.2477701,4.34151786 10.3325915,3.41964286 C10.0290201,3.27455357 9.87277009,2.94642857 9.9464308,2.61830357 C9.98214509,2.46651786 10.0000022,2.30580357 10.0000022,2.14285714 C10.0000022,0.959821429 9.0401808,0 7.85714509,0 C6.67410937,0 5.71428795,0.959821429 5.71428795,2.14285714 C5.71428795,2.30580357 5.73214509,2.46428571 5.76785937,2.61830357 C5.84375223,2.94642857 5.68527009,3.27455357 5.38169866,3.41964286 C3.46428795,4.34375 2.14285937,6.30357143 2.14285937,8.57142857 C2.14285937,11.3035714 2.14285937,14.0334821 0.270091518,15.5178571 C0.0937522321,15.6584821 2.23214283e-06,15.8526786 2.23214283e-06,16.078125 L2.23214283e-06,16.4285714 C2.23214283e-06,16.8214286 0.321430804,17.1428571 0.714287946,17.1428571 L15.0000022,17.1428571 C15.3928594,17.1428571 15.7142879,16.8214286 15.7142879,16.4285714 L15.7142879,16.078125 C15.7142879,15.8526786 15.6205379,15.6584821 15.4441987,15.5178571" id="Fill-3"></path>
    </symbol>
    <symbol id="user" viewBox="0 -1 15 21">
        <path d="M10.362315,11.1518894 C9.38865819,11.7788972 8.23614649,12.1429018 6.99984249,12.1429018 C5.76402851,12.1429018 4.6110268,11.7788972 3.63786004,11.1518894 C1.27305501,12.9534119 0,13.5539194 0,17.4799685 C0,19.2859911 4.1999055,20 6.99984249,20 C9.80026951,20 14.000175,19.2859911 14.000175,17.4779685 C13.9982149,13.5494194 12.72908,12.9534119 10.362315,11.1518894 Z M7.0000385,11.4286429 C10.0930036,11.4286429 12.6004025,8.87061088 12.6004025,5.71407143 C12.6004025,2.55803198 10.0930036,-4.73701078e-15 7.0000385,-4.73701078e-15 C3.90707344,-4.73701078e-15 1.39967449,2.55803198 1.39967449,5.71407143 C1.39967449,8.87061088 3.90707344,11.4286429 7.0000385,11.4286429 Z" id="Combined-Shape" stroke="none" fill-rule="evenodd"></path>
    </symbol>
    <symbol id="search" viewBox="260 10 20 21">
        <path d="M266.942252,22.495619 C263.875402,22.495619 261.388885,20.0091017 261.388885,16.942252 C261.388885,13.8754024 263.875402,11.3888851 266.942252,11.3888851 C270.009102,11.3888851 272.495619,13.8754024 272.495619,16.942252 C272.495619,20.0091017 270.009102,22.495619 266.942252,22.495619 M266.942252,10 C263.108147,10 260,13.1081467 260,16.942252 C260,20.7763574 263.108147,23.8845041 266.942252,23.8845041 C268.505019,23.8845041 269.946069,23.3693777 271.106734,22.4977925 L278.507057,29.8981158 C278.642903,30.0339614 278.863516,30.0339614 278.999362,29.8981158 L279.898116,28.9993615 C280.033961,28.863516 280.033961,28.6429027 279.898116,28.5070572 L272.497793,21.1067339 C273.369378,19.9460693 273.884504,18.5050195 273.884504,16.942252 C273.884504,13.1081467 270.776357,10 266.942252,10" id="Fill-1" stroke="none" fill-rule="evenodd"></path>
    </symbol>

    <symbol id="notebook" viewBox="60 87 18 21">
        <g id="Group-16" stroke="none" stroke-width="1" fill-rule="evenodd" transform="translate(60.000000, 88.000000)">
            <polygon id="Fill-1"  points="2.857 11.429 14.286 11.429 14.286 10 2.857 10"></polygon>
            <polygon id="Fill-2"  points="2.857 8.572 14.286 8.572 14.286 7.143 2.857 7.143"></polygon>
            <polygon id="Fill-3"  points="2.857 14.286 14.286 14.286 14.286 12.857 2.857 12.857"></polygon>
            <polygon id="Fill-4"  points="2.857 17.143 14.286 17.143 14.286 15.714 2.857 15.714"></polygon>
            <path d="M15.7143,2.1429 L15.7143,18.5719 L1.4283,18.5719 L1.4283,2.1429 C0.6403,2.1429 0.0003,2.7839 0.0003,3.5719 L0.0003,18.5719 C0.0003,19.3599 0.6403,19.9999 1.4283,19.9999 L15.7143,19.9999 C16.5023,19.9999 17.1433,19.3599 17.1433,18.5719 L17.1433,3.5719 C17.1433,2.7839 16.5023,2.1429 15.7143,2.1429" id="Fill-5" ></path>
            <path d="M13.5714,4.2857 L14.2854,4.2857 C14.6784,4.2857 15.0004,3.9647 15.0004,3.5717 L15.0004,0.7147 C15.0004,0.3217 14.6784,-0.0003 14.2854,-0.0003 L13.5714,-0.0003 C13.1784,-0.0003 12.8574,0.3217 12.8574,0.7147 L12.8574,3.5717 C12.8574,3.9647 13.1784,4.2857 13.5714,4.2857" id="Fill-8" ></path>
            <path d="M10,4.2857 L10.714,4.2857 C11.107,4.2857 11.429,3.9647 11.429,3.5717 L11.429,0.7147 C11.429,0.3217 11.107,-0.0003 10.714,-0.0003 L10,-0.0003 C9.607,-0.0003 9.286,0.3217 9.286,0.7147 L9.286,3.5717 C9.286,3.9647 9.607,4.2857 10,4.2857" id="Fill-11" ></path>
            <path d="M2.8571,4.2857 L3.5711,4.2857 C3.9641,4.2857 4.2861,3.9647 4.2861,3.5717 L4.2861,0.7147 C4.2861,0.3217 3.9641,-0.0003 3.5711,-0.0003 L2.8571,-0.0003 C2.4641,-0.0003 2.1431,0.3217 2.1431,0.7147 L2.1431,3.5717 C2.1431,3.9647 2.4641,4.2857 2.8571,4.2857" id="Fill-14" ></path>
            <path d="M6.4286,4.2857 L7.1426,4.2857 C7.5356,4.2857 7.8576,3.9647 7.8576,3.5717 L7.8576,0.7147 C7.8576,0.3217 7.5356,-0.0003 7.1426,-0.0003 L6.4286,-0.0003 C6.0356,-0.0003 5.7146,0.3217 5.7146,0.7147 L5.7146,3.5717 C5.7146,3.9647 6.0356,4.2857 6.4286,4.2857" id="Fill-17" ></path>
        </g>
    </symbol>
    
    <symbol viewBox="38 97 20 20" id="network">
        <g id="Group-38" stroke="none" stroke-width="1" fill-rule="evenodd" transform="translate(38.000000, 97.000000)">
            <path d="M7.07366071,3.56026786 C8.890625,2.62946429 11.109375,2.62946429 12.9263393,3.56026786 C12.8236607,3.04910714 12.8348214,2.51339286 12.9598214,2.00669643 C11.078125,1.24107143 8.921875,1.24107143 7.04017857,2.00669643 C7.16517857,2.51339286 7.17633929,3.046875 7.07366071,3.56026786" id="Fill-1" ></path>
            <path d="M16.2700893,10.7120536 L16.2700893,10.7098214 C15.8348214,12.6339286 14.5357143,14.2299107 12.8013393,15.0714286 C12.7321429,15.1584821 12.6584821,15.2433036 12.5825893,15.3236607 C12.9553571,15.6004464 13.3325893,15.890625 13.6183036,16.2611607 C15.7566964,15.1517857 17.3191964,13.0870536 17.7433036,10.6316964 C17.2566964,10.6919643 16.7589286,10.7209821 16.2700893,10.7120536" id="Fill-3" ></path>
            <path d="M7.41741071,15.3258929 C7.34151786,15.2455357 7.26785714,15.1607143 7.19866071,15.0736607 L7.19866071,15.0758929 C5.46428571,14.234375 4.16517857,12.6383929 3.72991071,10.7142857 C3.23883929,10.7232143 2.74107143,10.6941964 2.25669643,10.6339286 C2.68080357,13.0892857 4.24330357,15.1517857 6.38169643,16.2633929 C6.66741071,15.8928571 7.04241071,15.6026786 7.41741071,15.3258929" id="Fill-5" ></path>
            <path d="M18.4508929,5.80133929 C17.875,6.19642857 17.1785714,6.42857143 16.4285714,6.42857143 C15.6763393,6.42857143 14.9821429,6.19642857 14.40625,5.80133929 C13.3973214,6.54017857 12.8571429,6.94866071 12.8571429,8.73883929 C12.8571429,9.64285714 15,10 16.4285714,10 C17.8571429,10 20,9.64285714 20,8.73883929 C20,6.94642857 19.4620536,6.54241071 18.4508929,5.80133929" id="Fill-7" ></path>
            <path d="M16.4285714,5.71428571 C18.0066964,5.71428571 19.2857143,4.43526786 19.2857143,2.85714286 C19.2857143,1.27901786 18.0066964,0 16.4285714,0 C14.8504464,0 13.5714286,1.27901786 13.5714286,2.85714286 C13.5714286,4.43526786 14.8504464,5.71428571 16.4285714,5.71428571" id="Fill-9" ></path>
            <path d="M12.0223214,15.8013393 C11.4464286,16.1964286 10.75,16.4285714 10,16.4285714 C9.24776786,16.4285714 8.55357143,16.1964286 7.97767857,15.8013393 C6.96875,16.5401786 6.42857143,16.9486607 6.42857143,18.7388393 C6.42857143,19.6428571 8.57142857,20 10,20 C11.4285714,20 13.5714286,19.6428571 13.5714286,18.7388393 C13.5714286,16.9464286 13.0334821,16.5424107 12.0223214,15.8013393" id="Fill-11" ></path>
            <path d="M7.14285714,12.8571429 C7.14285714,14.4352679 8.421875,15.7142857 10,15.7142857 C11.578125,15.7142857 12.8571429,14.4352679 12.8571429,12.8571429 C12.8571429,11.2790179 11.578125,10 10,10 C8.421875,10 7.14285714,11.2790179 7.14285714,12.8571429" id="Fill-13" ></path>
            <path d="M7.14285714,8.73883929 C7.14285714,6.94642857 6.60491071,6.54241071 5.59375,5.80133929 C5.01785714,6.19642857 4.32142857,6.42857143 3.57142857,6.42857143 C2.81919643,6.42857143 2.125,6.19642857 1.54910714,5.80133929 C0.540178571,6.54017857 0,6.94866071 0,8.73883929 C0,9.64285714 2.14285714,10 3.57142857,10 C5,10 7.14285714,9.64285714 7.14285714,8.73883929" id="Fill-15" ></path>
            <path d="M3.57142857,5.71428571 C5.14955357,5.71428571 6.42857143,4.43526786 6.42857143,2.85714286 C6.42857143,1.27901786 5.14955357,0 3.57142857,0 C1.99330357,0 0.714285714,1.27901786 0.714285714,2.85714286 C0.714285714,4.43526786 1.99330357,5.71428571 3.57142857,5.71428571" id="Fill-17" ></path>
        </g>
    </symbol>
    
    <symbol id="eye" viewBox="38 138 21 14">
        <g id="Group-8" stroke="none" stroke-width="1" fill-rule="evenodd" transform="translate(38.000000, 138.000000)">
            <path d="M10,9.54022663 C8.52708333,9.54022663 7.33333333,8.40396601 7.33333333,7.001983 C7.33333333,6.70254958 7.3875,6.41303116 7.48958333,6.14730878 C7.39166667,5.98668555 7.33333333,5.79830028 7.33333333,5.598017 C7.33333333,4.99320113 7.84791667,4.50339943 8.48333333,4.50339943 C8.68333333,4.50339943 8.86875,4.5509915 9.03333333,4.63626062 C9.33302083,4.52533144 9.65972917,4.46387819 10.001,4.46375921 C10.0006667,4.46375921 10.0003333,4.46373938 10,4.46373938 L10.0020833,4.46373938 C10.0017292,4.46373938 10.001375,4.46375921 10.001,4.46375921 C11.4734583,4.46427479 12.6666667,5.60031728 12.6666667,7.001983 C12.6666667,8.40396601 11.4729167,9.54022663 10,9.54022663 M10,1.92549575 C7.05416667,1.92549575 4.66666667,4.198017 4.66666667,7.001983 C4.66666667,9.80594901 7.05416667,12.0784703 10,12.0784703 C12.9458333,12.0784703 15.3333333,9.80594901 15.3333333,7.001983 C15.3333333,4.198017 12.9458333,1.92549575 10,1.92549575" id="Fill-1" ></path>
            <path d="M10,5.09830028 L10.0020833,5.09631728 C9.83958333,5.09631728 9.68333333,5.11614731 9.53333333,5.14985836 C9.59791667,5.28668555 9.63333333,5.43739377 9.63333333,5.59603399 C9.63333333,6.20084986 9.11875,6.69065156 8.48333333,6.69065156 C8.32708333,6.69065156 8.17916667,6.66090652 8.04375,6.60736544 C8.01458333,6.73427762 8,6.86713881 8,7.001983 C8,8.0529745 8.89583333,8.90566572 10,8.90566572 C11.1041667,8.90566572 12,8.0529745 12,7.001983 C12,5.9509915 11.1041667,5.09830028 10,5.09830028" id="Fill-3" ></path>
            <path d="M17.8979187,8.36628895 C16.1750021,10.9402266 13.2875021,12.7130312 10.0000021,12.7130312 C6.70416875,12.7130312 3.82083542,10.9322946 2.10208542,8.36628895 C1.53125208,7.51558074 1.53125208,6.49036827 2.10208542,5.63767705 C3.82500208,3.06373938 6.71250208,1.29093484 10.0000021,1.29093484 C13.2875021,1.29093484 16.1750021,3.06373938 17.8979187,5.63767705 C18.4687521,6.48838527 18.4687521,7.51359773 17.8979187,8.36628895 M19.8625021,6.39518414 C18.1083354,2.62549575 14.3520854,0.0198300283 10.0000021,0.0198300283 C5.64791875,0.0198300283 1.89166875,2.62549575 0.137502083,6.39518414 C-0.04583125,6.7917847 -0.04583125,7.2101983 0.137502083,7.60679887 C1.89166875,11.3764873 5.64791875,13.982153 10.0000021,13.982153 C14.3520854,13.982153 18.1083354,11.3764873 19.8625021,7.60679887 C20.0458354,7.2101983 20.0458354,6.7917847 19.8625021,6.39518414" id="Fill-5" ></path>
        </g>
    </symbol>

    <symbol id="resizer" viewBox="276 459 5 22">
        <path d="M267,469.009369 C267,468.45191 267.443353,468 268.009369,468 L269.990631,468 C270.54809,468 271,468.443353 271,469.009369 L271,470.990631 C271,471.54809 270.556647,472 269.990631,472 L268.009369,472 C267.45191,472 267,471.556647 267,470.990631 L267,469.009369 Z M276,469.009369 C276,468.45191 276.443353,468 277.009369,468 L278.990631,468 C279.54809,468 280,468.443353 280,469.009369 L280,470.990631 C280,471.54809 279.556647,472 278.990631,472 L277.009369,472 C276.45191,472 276,471.556647 276,470.990631 L276,469.009369 Z M285,469.009369 C285,468.45191 285.443353,468 286.009369,468 L287.990631,468 C288.54809,468 289,468.443353 289,469.009369 L289,470.990631 C289,471.54809 288.556647,472 287.990631,472 L286.009369,472 C285.45191,472 285,471.556647 285,470.990631 L285,469.009369 Z" id="Combined-Shape" stroke="none" fill-rule="evenodd" transform="translate(278.000000, 470.000000) rotate(-270.000000) translate(-278.000000, -470.000000) "></path>
    </symbol>

    <symbol id="back" viewBox="0 0 36 36">
        <path d="M30 16.5h-18.26l8.38-8.38-2.12-2.12-12 12 12 12 2.12-2.12-8.38-8.38h18.26v-3z"/>
    </symbol>

</svg>